HIERARCHY
ROOT Hips
{
	OFFSET 0.00000 0.00000 0.00000
	CHANNELS 6 Xposition Yposition Zposition Zrotation Yrotation Xrotation 
	JOINT LHipJoint
	{
		OFFSET 0 0 0
		CHANNELS 3 Zrotation Yrotation Xrotation
		JOINT LeftHip
		{
			OFFSET 1.54859 -1.61379 0.86856
			CHANNELS 3 Zrotation Yrotation Xrotation
			JOINT LeftKnee
			{
				OFFSET 2.25087 -6.18423 0.00000
				CHANNELS 3 Zrotation Yrotation Xrotation
				JOINT LeftAnkle
				{
					OFFSET 2.40328 -6.60297 0.00000
					CHANNELS 3 Zrotation Yrotation Xrotation
					JOINT LeftToe
					{
						OFFSET 0.17435 -0.47901 2.02453
						CHANNELS 3 Zrotation Yrotation Xrotation
						End Site
						{
							OFFSET 0.00000 -0.00000 1.04844
						}
					}
				}
			}
		}
	}
	JOINT RHipJoint
	{
		OFFSET 0 0 0
		CHANNELS 3 Zrotation Yrotation Xrotation
		JOINT RightHip
		{
			OFFSET -1.54669 -1.61379 0.86856
			CHANNELS 3 Zrotation Yrotation Xrotation
			JOINT RightKnee
			{
				OFFSET -2.28132 -6.26789 0.00000
				CHANNELS 3 Zrotation Yrotation Xrotation
				JOINT RightAnkle
				{
					OFFSET -2.51636 -6.91365 0.00000
					CHANNELS 3 Zrotation Yrotation Xrotation
					JOINT RightToe
					{
						OFFSET -0.15124 -0.41552 2.21090
						CHANNELS 3 Zrotation Yrotation Xrotation
						End Site
						{
							OFFSET -0.00000 -0.00000 1.13399
						}
					}
				}
			}
		}
	}
	JOINT lowerback
	{
		OFFSET 0 0 0
		CHANNELS 3 Zrotation Yrotation Xrotation
		JOINT Chest
		{
			OFFSET -0.04287 2.26161 -0.25690
			CHANNELS 3 Zrotation Yrotation Xrotation
			JOINT Chest2
			{
				OFFSET 0.02248 2.28395 -0.10140
				CHANNELS 3 Zrotation Yrotation Xrotation
				JOINT lowerneck
				{
					OFFSET 0 0 0
					CHANNELS 3 Zrotation Yrotation Xrotation
					JOINT Neck
					{
						OFFSET -0.11644 1.38496 0.11345
						CHANNELS 3 Zrotation Yrotation Xrotation
						JOINT Head
						{
							OFFSET 0.29383 1.36600 0.06642
							CHANNELS 3 Zrotation Yrotation Xrotation
							End Site
							{
								OFFSET 0.11075 1.41395 -0.00294
							}
						}
					}
				}
				JOINT LeftCollar
				{
					OFFSET 0 0 0
					CHANNELS 3 Zrotation Yrotation Xrotation
					JOINT LeftShoulder
					{
						OFFSET 3.51628 0.59542 -0.30346
CHANNELS 3 Zrotation Xrotation Yrotation
						JOINT LeftElbow
						{
OFFSET 0 -4.764050 0.000000
CHANNELS 3 Zrotation Xrotation Yrotation
							JOINT LeftWrist
							{
OFFSET 0 -3.137590 -0.000000
CHANNELS 3 Zrotation Xrotation Yrotation
								JOINT lhand
								{
									OFFSET 0 0 0
CHANNELS 3 Zrotation Xrotation Yrotation
									JOINT LFingers
									{
OFFSET 0 -0.732260 -0.000000
CHANNELS 3 Zrotation Xrotation Yrotation
										End Site
										{
OFFSET 0 -0.590370 -0.000000
										}
									}
								}
								JOINT LThumb
								{
OFFSET 0 0.000000 0.000000
CHANNELS 3 Zrotation Xrotation Yrotation
									End Site
									{
OFFSET 0 -0.599380 0.599380
									}
								}
							}
						}
					}
				}
				JOINT RightCollar
				{
					OFFSET 0 0 0
					CHANNELS 3 Zrotation Yrotation Xrotation
					JOINT RightShoulder
					{
						OFFSET -3.30990 0.84213 -0.36430
CHANNELS 3 Zrotation Xrotation Yrotation
						JOINT RightElbow
						{
OFFSET 0 -5.101610 -0.000000
CHANNELS 3 Zrotation Xrotation Yrotation
							JOINT RightWrist
							{
OFFSET 0 -3.232670 -0.000000
CHANNELS 3 Zrotation Xrotation Yrotation
								JOINT rhand
								{
									OFFSET 0 0 0
CHANNELS 3 Zrotation Xrotation Yrotation
									JOINT RFingers
									{
OFFSET 0 -0.702000 -0.000000
CHANNELS 3 Zrotation Xrotation Yrotation
										End Site
										{
OFFSET 0 -0.565970 -0.000000
										}
									}
								}
								JOINT RThumb
								{
OFFSET 0 0.000000 0.000000
CHANNELS 3 Zrotation Xrotation Yrotation
									End Site
									{
OFFSET 0 -0.574610 0.574610
									}
								}
							}
						}
					}
				}
			}
		}
	}
}
MOTION
Frames: 4
Frame Time: 0.008333333333333333
3.927704 15.551469 8.127197 20.888523 54.414038 19.393074 0.000000 0.000000 0.000000 -20.334842 4.448792 -4.683462 4.788798 13.137569 39.893247 -0.366275 -10.922971 2.741721 5.270727 -13.677966 -41.970988 0.000000 0.000000 0.000000 16.212047 2.053323 -38.597718 -19.482226 -19.987972 88.485532 -0.437051 -4.877955 -15.234885 -0.225634 3.057682 -8.439479 -7.899461 4.364904 11.479693 -0.800627 5.348742 8.239925 3.024963 2.508022 1.664236 -14.707576 -8.477478 1.344978 21.644374 -9.808531 -14.192741 9.344218 -5.160426 -2.321752 0.000000 0.000000 0.000000 12.909728 7.122970 7.367413 100.026095 -59.599186 68.670146 0.144519 -38.865879 -31.037708 0.000000 0.000000 0.000000 -7.125000 0.000000 0.000000 -34.463936 57.492119 11.442824 0.000000 0.000000 0.000000 -9.774958 2.781566 3.496390 -25.529583 -36.738977 -8.605270 -53.989321 -44.209931 -42.808009 0.000000 0.000000 0.000000 7.125000 0.000000 0.000000 -7.539518 -27.230798 -10.211722
4.037512 15.568107 8.209692 21.063770 54.402714 19.470023 0.000000 0.000000 0.000000 -20.327625 4.660077 -4.024685 4.685395 13.018108 39.440441 -0.360126 -10.679013 3.750063 5.160780 -13.560199 -41.508065 0.000000 0.000000 0.000000 15.992640 1.942170 -38.924055 -19.252377 -19.983517 87.813297 -0.441553 -4.859066 -15.279555 -0.226701 3.064945 -8.459737 -7.952184 4.321812 11.438178 -0.816082 5.291727 8.237674 3.047890 2.477066 1.688207 -14.668429 -8.447334 1.331635 21.595921 -9.780894 -14.090823 9.317253 -5.144879 -2.301656 0.000000 0.000000 0.000000 13.320184 7.365211 7.544540 99.026386 -59.680358 67.808137 -0.143343 -38.688636 -30.807024 0.000000 0.000000 0.000000 -7.125000 0.000000 0.000000 -34.532508 57.240457 11.254072 0.000000 0.000000 0.000000 -9.745975 3.024897 3.378971 -25.665148 -36.875332 -8.686210 -53.894063 -44.146093 -42.730526 0.000000 0.000000 0.000000 7.125000 0.000000 0.000000 -7.532255 -27.102194 -10.194666
4.147455 15.584994 8.292644 21.224945 54.398738 19.541724 0.000000 0.000000 0.000000 -20.306657 4.855367 -3.366125 4.578659 12.891187 38.965527 -0.340202 -10.388378 4.782164 5.036721 -13.422166 -40.975337 0.000000 0.000000 0.000000 15.789437 1.824982 -39.236905 -19.010436 -19.974141 87.105089 -0.444332 -4.844560 -15.305018 -0.238643 3.135842 -8.657996 -8.003921 4.277101 11.394252 -0.824509 5.232572 8.233083 3.077789 2.444884 1.710775 -14.624089 -8.421494 1.296392 21.543493 -9.758361 -13.975651 9.286057 -5.130645 -2.273627 0.000000 0.000000 0.000000 13.721209 7.609976 7.691552 97.998109 -59.750689 66.920565 -0.597242 -38.689218 -30.685778 0.000000 0.000000 0.000000 -7.125000 0.000000 0.000000 -34.852851 57.044544 11.207372 0.000000 0.000000 0.000000 -9.730269 3.249116 3.275007 -25.786835 -36.997174 -8.759105 -53.829352 -44.081710 -42.645335 0.000000 0.000000 0.000000 7.125000 0.000000 0.000000 -7.541980 -26.983591 -10.201330
4.257658 15.602352 8.376462 21.359444 54.408693 19.603473 0.000000 0.000000 0.000000 -20.259620 5.020334 -2.707975 4.465603 12.750122 38.448697 -0.294162 -10.009249 5.859310 4.885910 -13.245713 -40.310272 0.000000 0.000000 0.000000 15.616951 1.696355 -39.524187 -18.745570 -19.955438 86.328685 -0.443844 -4.838365 -15.294065 -0.271200 3.327379 -9.193715 -8.053789 4.229321 11.345753 -0.819613 5.169360 8.224056 3.120904 2.410378 1.730686 -14.569904 -8.403811 1.219629 21.483531 -9.745505 -13.835352 9.246840 -5.118903 -2.230558 0.000000 0.000000 0.000000 14.104352 7.859526 7.781472 96.915673 -59.800464 65.984531 -1.365919 -39.026926 -30.772009 0.000000 0.000000 0.000000 -7.125000 0.000000 0.000000 -35.650512 56.954322 11.429981 0.000000 0.000000 0.000000 -9.739737 3.437103 3.196550 -25.882209 -37.091504 -8.816747 -53.822553 -44.016294 -42.545528 0.000000 0.000000 0.000000 7.125000 0.000000 0.000000 -7.583912 -26.883947 -10.252962
